<?xml version="1.0" encoding="UTF-8"?> <!-- Generator: Adobe Illustrator 24.0.1, SVG Export Plug-In . SVG Version: 6.00 Build 0) --> <svg xmlns="http://www.w3.org/2000/svg" xmlns:xlink="http://www.w3.org/1999/xlink" id="Слой_1" x="0px" y="0px" viewBox="0 0 425 176.1" style="enable-background:new 0 0 425 176.1;" xml:space="preserve"> <style type="text/css"> .st0{fill:#009245;} .st1{fill:#FFFFFF;} </style> <g> <path d="M384.9,176.1H40.1C18,176.1,0,158.1,0,136v0c0-22.1,18-40.1,40.1-40.1h344.8c22.1,0,40.1,18,40.1,40.1v0 C425,158.1,407,176.1,384.9,176.1z"></path> <path class="st0" d="M383.6,170.4H211.2c-19,0-34.4-15.4-34.4-34.4v0c0-19,15.4-34.4,34.4-34.4h172.4c19,0,34.4,15.4,34.4,34.4v0 C418.1,155,402.6,170.4,383.6,170.4z"></path> <g> <g> <path class="st1" d="M60.2,118.3l14.5,34h-8.1l-2.2-5.2h-21l-2.2,5.2h-8.2l14.8-34H60.2z M46.2,140.5h15.1l-6.2-15.3h-2.6 L46.2,140.5z"></path> <path class="st1" d="M83.8,128.5v12.2c0,4.7,2.1,7.5,6.8,7.5c4.7,0,6.8-2.8,6.8-7.5v-12.2h5.4v12.1c0,7.9-4.7,12.3-12.2,12.3 c-7.4,0-12.2-4.4-12.2-12.3v-12.1H83.8z"></path> <path class="st1" d="M130.8,128.5v4.8h-9.7v19h-5.4v-19H106v-4.8H130.8z"></path> <path class="st1" d="M146.4,152.9c-7.2,0-13.3-5-13.3-12.5s6.1-12.5,13.3-12.5s13.3,5,13.3,12.5S153.6,152.9,146.4,152.9z M146.4,148.3c4.5,0,8-3,8-7.9s-3.5-7.9-8-7.9s-8,3-8,7.9S141.9,148.3,146.4,148.3z"></path> </g> </g> <g> <g> <path class="st1" d="M217,118.2l13.3,26.8h0.3l13.4-26.8h8.9v34h-6.2v-26.3H246l-12.9,26.3h-5.6l-12.9-26.3H214v26.3h-6v-34H217z "></path> <path class="st1" d="M276.2,128.4l10.1,23.8h-4.6l-1.6-3.7h-16.2l-1.6,3.7h-4.7l10.4-23.8H276.2z M265.5,144.6h12.8l-5-12.3h-2.7 L265.5,144.6z"></path> <path class="st1" d="M310.2,134.3c-2.8-1.9-5.6-2.6-9.5-2.6c-5.3,0-6.6,1.5-6.6,3.2c0,1.8,1.5,2.3,3.7,2.5l7.4,0.9 c4.9,0.6,7.9,2.8,7.9,6.9c0,5.2-5,7.6-12.1,7.6c-4.8,0-8.4-1-12.1-3.6l2.1-3.4c3.3,2.2,6.5,3.2,10.6,3.2c4.3,0,7.2-1.2,7.2-3.7 c0-1.8-1.2-2.7-3.7-2.9l-7.8-0.9c-4.7-0.6-7.6-2.3-7.6-6.6c0-4.9,5-7.1,10.9-7.1c4.3,0,8,0.7,11.6,3.3L310.2,134.3z"></path> <path class="st1" d="M340.4,128.4v4h-10.1v19.9h-4.4v-19.9h-10.1v-4H340.4z"></path> <path class="st1" d="M365.3,128.4v4h-16.9v5.7h15.2v3.9h-15.2v6.2h17.6v4h-22v-23.8H365.3z"></path> <path class="st1" d="M384.1,128.4c5.5,0,9.7,3.7,9.7,9.2c0,3.8-2,6.6-5,8l3.7,6.6h-4.8l-3-5.5h-10.3v5.5h-4.4v-23.8H384.1z M374.5,142.7h9.4c3.3,0,5.5-1.9,5.5-5.1c0-3.2-2.2-5.2-5.5-5.2h-9.4V142.7z"></path> </g> </g> <g> <path id="XMLID_4_" d="M175,47.3c0,0-12.2-15.2-62.3-26.1c6.3-1.7,77-16.1,112-11.4c31.2,4.2,55.7,20.7,55.8,20.7 c0,0-18.1-23.6-54.3-29.5c-12-2-29-0.5-46.1,0.6c-57,3.5-127.2,28.1-127.2,28.1S109.2,18.3,175,47.3z"></path> <path id="XMLID_3_" d="M38.2,60.3c1.1-3.8,2.5-9.9,3.3-11.2c64-19.9,150.1,17.6,150.1,17.6c-30-27.3-113-40.2-154.6-26.2 C29.5,50.8,36.1,75,36.1,75C36.5,70.4,37.3,63,38.2,60.3z"></path> <path d="M392.4,86.7c-1.8-7.5-5.8-23.4-9.7-31.7c-24.8-15.9-49.1-20.6-59.7-22.1c-41.6-6-85.9,21-139,15.1c0,0,25,12.2,94.3-3.7 c44.5-10.2,75.6,5.9,95.6,17c1.8,4.5,3.2,10.5,4.9,17.9h-36.1c-1.1-15.3-13.9-27.3-29.5-27.3S285,63.9,283.8,79.2H116.1 c-1.1-15.3-13.9-27.3-29.5-27.3S58.3,63.9,57.2,79.2H0v7.4h68.4c-0.5-1.7-0.8-3.4-0.8-5.2c0-0.8,0.1-1.5,0.2-2.3 c1.1-9.4,9.1-16.7,18.8-16.7s17.6,7.3,18.8,16.7c0.1,0.8,0.2,1.5,0.2,2.3c0,1.8-0.3,3.5-0.8,5.2h190.2c-0.5-1.7-0.8-3.4-0.8-5.2 c0-0.8,0.1-1.5,0.2-2.3c1.1-9.4,9.1-16.7,18.8-16.7c9.7,0,17.6,7.3,18.8,16.7c0.1,0.8,0.2,1.5,0.2,2.3c0,1.8-0.3,3.5-0.8,5.2 H392.4z"></path> <polygon points="425,79.2 402.6,79.2 404.4,86.7 425,86.7 "></polygon> <path class="st0" d="M273.7,31.9C273.7,31.9,273.7,31.9,273.7,31.9c-7.9-4.7-26.9-14.4-49.5-17.4c-4.4-0.6-9.7-0.9-15.8-0.9 c-23.3,0-54.1,4.5-74.2,8.1c7.7,2.3,14.1,4.7,19.5,7C227.6,11.8,270.4,30.4,273.7,31.9z"></path> <path class="st0" d="M77.8,48.1c-11.9,0.4-22.9,2-32.7,4.8c-0.3,1.1-0.7,2.6-1,3.7c-0.5,1.7-0.9,3.5-1.4,5 c-0.6,1.8-1.3,7.5-1.7,12.2C41.9,70.1,48,52,77.8,48.1z"></path> <path class="st0" d="M253.1,60.7c16.3-2.6,28.8-5.6,39-7.1c9.4-6.9,20.5-7.6,20.5-7.6c-2.1-0.1-4.3-0.2-6.5-0.2 c-8.7,0-17.8,1.1-26.8,3.1c-23.9,5.5-54.2,12.1-91.6,5.1C187.8,54.1,220.4,66,253.1,60.7z"></path> <path class="st0" d="M320.9,46.9c0,0,37.9,12,45.9,27.6h6.2c-0.9-3.8-1.8-7.1-2.8-9.8c-13.6-7.5-29.5-15.2-49.3-17.9V46.9 C320.9,46.9,320.9,46.9,320.9,46.9z"></path> </g> </g> </svg> 